<svg width="48" height="19" viewBox="0 0 48 19" fill="none" xmlns="http://www.w3.org/2000/svg">
<path d="M4.89111 0.817871V19H0.163086V0.817871H4.89111ZM16.3125 0.817871V4.45654H13.5049V19H8.77686V4.45654H5.98047V0.817871H16.3125ZM25.5552 0.817871L28.2617 19H23.4214L23.1855 15.7319H21.4897L21.209 19H16.3125L18.7158 0.817871H25.5552ZM23.0508 12.5088C22.8112 10.4499 22.5716 7.90804 22.332 4.8833C21.8529 8.35726 21.5534 10.8991 21.4336 12.5088H23.0508ZM33.7983 0.817871V15.3613H36.6733V19H29.0703V0.817871H33.7983ZM47.9038 0.817871L44.4561 12.4189V19H40.0762V12.4189L36.752 0.817871H41.0981C41.7795 4.35921 42.1613 6.74382 42.2437 7.97168C42.5057 6.03255 42.9437 3.64795 43.5576 0.817871H47.9038Z" fill="white"/>
</svg>
